<svg width="46" height="46" viewBox="0 0 46 46" fill="none" xmlns="http://www.w3.org/2000/svg">
<g clip-path="url(#clip0_138_704)">
<path d="M35.1052 10.8948H10.8948V35.1052H35.1052V10.8948Z" fill="white"/>
<path d="M35.1052 45.9999L46 35.1051L40.5526 34.1758L35.1052 35.1051L34.111 40.0879L35.1052 45.9999Z" fill="#EA4335"/>
<path d="M0 35.1051V42.3683C0 44.3748 1.62509 45.9999 3.63148 45.9999H10.8948L12.0134 40.5525L10.8948 35.1051L4.9592 34.1758L0 35.1051Z" fill="#188038"/>
<path d="M46 10.8948V3.63148C46 1.62509 44.3749 0 42.3685 0H35.1052C34.4425 2.70178 34.1111 4.69008 34.111 5.96491C34.111 7.23961 34.4424 8.88291 35.1052 10.8948C37.5148 11.5848 39.3306 11.9298 40.5526 11.9298C41.7746 11.9298 43.5904 11.5849 46 10.8948Z" fill="#1967D2"/>
<path d="M46 10.8948H35.1052V35.1052H46V10.8948Z" fill="#FBBC04"/>
<path d="M35.1052 35.1052H10.8948V46H35.1052V35.1052Z" fill="#34A853"/>
<path d="M35.1052 0H3.63166C1.62509 0 0 1.62509 0 3.63148V35.1052H10.8948V10.8948H35.1052V0Z" fill="#4285F4"/>
<path d="M15.861 29.6761C14.9561 29.0648 14.3296 28.1721 13.9876 26.9915L16.088 26.1262C16.2784 26.8524 16.6113 27.4154 17.0867 27.8149C17.5587 28.2143 18.1337 28.4111 18.8056 28.4111C19.4925 28.4111 20.0825 28.2022 20.5759 27.7845C21.0693 27.3669 21.3174 26.8343 21.3174 26.1898C21.3174 25.5299 21.0572 24.9912 20.5367 24.5737C20.0161 24.1561 19.3624 23.9473 18.5817 23.9473H17.3681V21.8683H18.4575C19.1293 21.8683 19.6952 21.6866 20.1552 21.3233C20.6152 20.9603 20.8452 20.4638 20.8452 19.8313C20.8452 19.2686 20.6395 18.8206 20.228 18.4848C19.8165 18.1487 19.2958 17.9793 18.6633 17.9793C18.0459 17.9793 17.5557 18.1428 17.1925 18.4725C16.8295 18.8032 16.5566 19.2209 16.3996 19.6862L14.3206 18.8206C14.5959 18.0399 15.1013 17.3499 15.8427 16.7537C16.5841 16.1574 17.5314 15.8579 18.6814 15.8579C19.5319 15.8579 20.2975 16.0214 20.9755 16.3512C21.6533 16.6811 22.1859 17.138 22.5702 17.7191C22.9547 18.3031 23.1452 18.9568 23.1452 19.6831C23.1452 20.4245 22.9668 21.0511 22.6097 21.5655C22.2527 22.0799 21.8137 22.4733 21.2932 22.7487V22.8727C21.9653 23.1499 22.5491 23.6051 22.9819 24.1893C23.4207 24.7794 23.6417 25.4845 23.6417 26.3078C23.6417 27.1308 23.4327 27.8662 23.0151 28.5108C22.5975 29.1555 22.0196 29.6638 21.2871 30.0331C20.5518 30.4024 19.7256 30.5901 18.8086 30.5901C17.7463 30.593 16.7659 30.2874 15.861 29.6761ZM28.7619 19.2533L26.4559 20.9208L25.3029 19.1717L29.4398 16.1876H31.0256V30.2631H28.7619V19.2533Z" fill="#4285F4"/>
</g>
<defs>
<clipPath id="clip0_138_704">
<rect width="46" height="46" fill="white"/>
</clipPath>
</defs>
</svg>
