<svg width="33" height="33" viewBox="0 0 33 33" fill="none" xmlns="http://www.w3.org/2000/svg">
<path d="M1.6492 1.6492C2.22216 1.07641 2.99915 0.754639 3.80932 0.754639C4.61948 0.754639 5.39648 1.07641 5.96944 1.6492L16.7731 12.4528L27.5767 1.6492C28.153 1.09264 28.9248 0.784685 29.7259 0.791646C30.527 0.798607 31.2933 1.11993 31.8598 1.68642C32.4262 2.2529 32.7476 3.01921 32.7545 3.82031C32.7615 4.62141 32.4535 5.39319 31.897 5.96944L21.0933 16.7731L31.897 27.5767C32.4535 28.153 32.7615 28.9248 32.7545 29.7259C32.7476 30.527 32.4262 31.2933 31.8598 31.8598C31.2933 32.4262 30.527 32.7476 29.7259 32.7545C28.9248 32.7615 28.153 32.4535 27.5767 31.897L16.7731 21.0933L5.96944 31.897C5.39319 32.4535 4.62141 32.7615 3.82031 32.7545C3.01921 32.7476 2.2529 32.4262 1.68642 31.8598C1.11993 31.2933 0.798607 30.527 0.791646 29.7259C0.784685 28.9248 1.09264 28.153 1.6492 27.5767L12.4528 16.7731L1.6492 5.96944C1.07641 5.39648 0.754639 4.61948 0.754639 3.80932C0.754639 2.99915 1.07641 2.22216 1.6492 1.6492Z" fill="black"/>
</svg>
