<svg width="50" height="50" viewBox="0 0 50 50" fill="none" xmlns="http://www.w3.org/2000/svg">
<path d="M30.6812 12.5H43.1812L30.6812 0V12.5ZM30.6812 14.0146H29.1666V0H10.2291C8.34373 0 6.81873 1.525 6.81873 3.40833V46.5917C6.81873 48.475 8.34373 50 10.2271 50H39.7729C41.6562 50 43.1812 48.475 43.1812 46.5917V14.0146H30.6812ZM16.4791 36.0792C16.2551 36.079 16.0332 36.0348 15.8263 35.9489C15.6193 35.863 15.4313 35.7372 15.2729 35.5787C15.1146 35.4201 14.989 35.232 14.9034 35.0249C14.8178 34.8178 14.7738 34.5959 14.7739 34.3719C14.7741 34.1478 14.8183 33.926 14.9042 33.719C14.9901 33.512 15.1159 33.324 15.2744 33.1657C15.433 33.0073 15.6211 32.8818 15.8282 32.7961C16.0353 32.7105 16.2572 32.6665 16.4812 32.6667C16.9338 32.6667 17.3677 32.8464 17.6877 33.1664C18.0077 33.4864 18.1875 33.9204 18.1875 34.3729C18.1875 34.8254 18.0077 35.2594 17.6877 35.5794C17.3677 35.8994 16.9317 36.0792 16.4791 36.0792ZM16.4791 29.2604C16.2502 29.2683 16.022 29.23 15.8082 29.1477C15.5944 29.0655 15.3993 28.9411 15.2346 28.7818C15.0699 28.6226 14.939 28.4318 14.8496 28.2209C14.7602 28.01 14.7142 27.7832 14.7143 27.5541C14.7145 27.325 14.7607 27.0983 14.8504 26.8875C14.94 26.6767 15.0712 26.4861 15.2361 26.3271C15.401 26.168 15.5962 26.0438 15.8101 25.9619C16.024 25.8799 16.2523 25.8419 16.4812 25.85C16.9232 25.8654 17.3418 26.0519 17.649 26.37C17.9562 26.6881 18.1279 27.113 18.1279 27.5552C18.1279 27.9974 17.9562 28.4223 17.649 28.7404C17.3418 29.0585 16.9211 29.245 16.4791 29.2604ZM16.4791 22.4437C16.2551 22.4436 16.0332 22.3993 15.8263 22.3135C15.6193 22.2276 15.4313 22.1018 15.2729 21.9433C15.1146 21.7847 14.989 21.5966 14.9034 21.3895C14.8178 21.1824 14.7738 20.9605 14.7739 20.7365C14.7741 20.5124 14.8183 20.2905 14.9042 20.0836C14.9901 19.8766 15.1159 19.6886 15.2744 19.5303C15.433 19.3719 15.6211 19.2464 15.8282 19.1607C16.0353 19.0751 16.2572 19.0311 16.4812 19.0312C16.9338 19.0312 17.3677 19.211 17.6877 19.531C18.0077 19.851 18.1875 20.285 18.1875 20.7375C18.1875 21.19 18.0077 21.624 17.6877 21.944C17.3677 22.264 16.9317 22.4437 16.4791 22.4437ZM35.2291 35.7958H21.025V32.9542H35.2291V35.7958ZM35.2291 28.9771H21.025V26.1354H35.2291V28.9771ZM35.2291 22.1583H21.025V19.3187H35.2291V22.1583Z" fill="#7346BA"/>
</svg>
