<svg width="50" height="36" viewBox="0 0 50 36" fill="none" xmlns="http://www.w3.org/2000/svg">
<path fill-rule="evenodd" clip-rule="evenodd" d="M0 8C0 6.01088 0.790177 4.10322 2.1967 2.6967C3.60322 1.29018 5.51088 0.5 7.5 0.5H42.5C44.4891 0.5 46.3968 1.29018 47.8033 2.6967C49.2098 4.10322 50 6.01088 50 8H0ZM0 13V23H50V13H0ZM50 28H0C0 29.9891 0.790177 31.8968 2.1967 33.3033C3.60322 34.7098 5.51088 35.5 7.5 35.5H42.5C44.4891 35.5 46.3968 34.7098 47.8033 33.3033C49.2098 31.8968 50 29.9891 50 28Z" fill="white"/>
</svg>
