<svg width="44" height="44" viewBox="0 0 44 44" fill="none" xmlns="http://www.w3.org/2000/svg">
<g clip-path="url(#clip0_160_168)">
<path d="M0.938994 21.7367C0.937963 25.4336 1.91146 29.0433 3.76256 32.2249L0.761963 43.0956L11.9737 40.1787C15.0747 41.8537 18.5492 42.7314 22.08 42.7317H22.0892C33.7449 42.7317 43.233 33.3206 43.2379 21.7532C43.2402 16.148 41.0422 10.8772 37.0489 6.91177C33.0562 2.94666 27.7462 0.761835 22.0884 0.759277C10.4313 0.759277 0.943979 10.1698 0.939166 21.7367" fill="url(#paint0_linear_160_168)"/>
<path d="M16.6166 12.6453C16.2065 11.741 15.7749 11.7227 15.385 11.7069C15.0656 11.6932 14.7005 11.6942 14.3358 11.6942C13.9708 11.6942 13.3776 11.8305 12.8763 12.3737C12.3744 12.9174 10.9602 14.2312 10.9602 16.9035C10.9602 19.5757 12.9218 22.1584 13.1953 22.5211C13.4691 22.8832 16.9822 28.5425 22.5461 30.7196C27.1703 32.5289 28.1113 32.1691 29.1148 32.0783C30.1186 31.9879 32.3537 30.7648 32.8096 29.4965C33.266 28.2283 33.266 27.1413 33.1292 26.9141C32.9923 26.6878 32.6273 26.5519 32.0799 26.2804C31.5324 26.0089 28.841 24.6947 28.3393 24.5134C27.8375 24.3323 27.4726 24.2419 27.1075 24.7858C26.7425 25.3288 25.6942 26.5519 25.3747 26.9141C25.0555 27.2772 24.736 27.3224 24.1887 27.0507C23.641 26.7782 21.878 26.2054 19.7865 24.3551C18.1592 22.9154 17.0606 21.1375 16.7412 20.5937C16.4219 20.0506 16.707 19.7563 16.9815 19.4856C17.2275 19.2423 17.5291 18.8514 17.8031 18.5344C18.076 18.2171 18.1671 17.9908 18.3496 17.6286C18.5323 17.266 18.4409 16.9488 18.3043 16.6771C18.1671 16.4055 17.1034 13.7193 16.6166 12.6453Z" fill="white"/>
</g>
<defs>
<linearGradient id="paint0_linear_160_168" x1="2124.56" y1="4234.4" x2="2124.56" y2="0.759277" gradientUnits="userSpaceOnUse">
<stop stop-color="#1FAF38"/>
<stop offset="1" stop-color="#60D669"/>
</linearGradient>
<clipPath id="clip0_160_168">
<rect width="44" height="44" fill="white"/>
</clipPath>
</defs>
</svg>
